const uint16_t melodia[] PROGMEM = {
// 1 OK
NOTE_C4,  16,  // 1
NOTE_E4,  16,  // 2
NOTE_G4,  16,  // 3
NOTE_C5,  16,  // 4
NOTE_E5,  16,  // 5
NOTE_G4,  16,  // 6
NOTE_C5,  16,  // 7
NOTE_E5,  16,  // 8

NOTE_C4,  16,  // 1
NOTE_E4,  16,  // 2
NOTE_G4,  16,  // 3
NOTE_C5,  16,  // 4
NOTE_E5,  16,  // 5
NOTE_G4,  16,  // 6
NOTE_C5,  16,  // 7
NOTE_E5,  16,  // 8

// 2 OK
NOTE_C4,  16,  // 1
NOTE_D4,  16,  // 2
NOTE_A4,  16,  // 3
NOTE_D5,  16,  // 4
NOTE_F5,  16,  // 5
NOTE_A4,  16,  // 6
NOTE_D5,  16,  // 7
NOTE_F5,  16,  // 8

NOTE_C4,  16,  // 1
NOTE_D4,  16,  // 2
NOTE_A4,  16,  // 3
NOTE_D5,  16,  // 4
NOTE_F5,  16,  // 5
NOTE_A4,  16,  // 6
NOTE_D5,  16,  // 7
NOTE_F5,  16,  // 8

// 3 OK
NOTE_B3,  16,  // 1
NOTE_D4,  16,  // 2
NOTE_G4,  16,  // 3
NOTE_D5,  16,  // 4
NOTE_F5,  16,  // 5
NOTE_G4,  16,  // 6
NOTE_D5,  16,  // 7
NOTE_F5,  16,  // 8

NOTE_B3,  16,  // 1
NOTE_D4,  16,  // 2
NOTE_G4,  16,  // 3
NOTE_D5,  16,  // 4
NOTE_F5,  16,  // 5
NOTE_G4,  16,  // 6
NOTE_D5,  16,  // 7
NOTE_F5,  16,  // 8

// 4 OK
NOTE_C4,  16,  // 1
NOTE_E4,  16,  // 2
NOTE_G4,  16,  // 3
NOTE_C5,  16,  // 4
NOTE_E5,  16,  // 5
NOTE_G4,  16,  // 6
NOTE_C5,  16,  // 7
NOTE_E5,  16,  // 8

NOTE_C4,  16,  // 1
NOTE_E4,  16,  // 2
NOTE_G4,  16,  // 3
NOTE_C5,  16,  // 4
NOTE_E5,  16,  // 5
NOTE_G4,  16,  // 6
NOTE_C5,  16,  // 7
NOTE_E5,  16,  // 8

// 5 OK
NOTE_C4,  16,  // 1
NOTE_E4,  16,  // 2
NOTE_A4,  16,  // 3
NOTE_E5,  16,  // 4
NOTE_A5,  16,  // 5
NOTE_A4,  16,  // 6
NOTE_E5,  16,  // 7
NOTE_A5,  16,  // 8

NOTE_C4,  16,  // 1
NOTE_E4,  16,  // 2
NOTE_A4,  16,  // 3
NOTE_E5,  16,  // 4
NOTE_A5,  16,  // 5
NOTE_A4,  16,  // 6
NOTE_E5,  16,  // 7
NOTE_A5,  16,  // 8

// 6  OK
NOTE_C4,  16,  // 1 
NOTE_D4,  16,  // 2
NOTE_FS4, 16,  // 3
NOTE_A4,  16,  // 4
NOTE_D5,  16,  // 5
NOTE_FS4, 16,  // 6
NOTE_A4,  16,  // 7
NOTE_D5,  16,  // 8

NOTE_C4,  16,  // 1
NOTE_D4,  16,  // 2
NOTE_FS4, 16,  // 3
NOTE_A4,  16,  // 4
NOTE_D5,  16,  // 5
NOTE_FS4, 16,  // 6
NOTE_A4,  16,  // 7
NOTE_D5,  16,  // 8

// 7 OK cambio
NOTE_B3,  16,  // 1 
NOTE_D4,  16,  // 2
NOTE_G4,  16,  // 3
NOTE_D4,  16,  // 4
NOTE_G5,  16,  // 5
NOTE_G4,  16,  // 6
NOTE_D4,  16,  // 7
NOTE_G5,  16,  // 8

NOTE_B3,  16,  // 1
NOTE_D4,  16,  // 2
NOTE_G4,  16,  // 3
NOTE_D4,  16,  // 4
NOTE_G5,  16,  // 5
NOTE_G4,  16,  // 6
NOTE_D4,  16,  // 7
NOTE_G5,  16,  // 8

// 8 OK cambio
NOTE_B3,  16,  // 1
NOTE_C4,  16,  // 2
NOTE_E4,  16,  // 3
NOTE_G4,  16,  // 4
NOTE_C5,  16,  // 5
NOTE_E4,  16,  // 6
NOTE_G4,  16,  // 7
NOTE_C5,  16,  // 8

NOTE_B3,  16,  // 1
NOTE_C4,  16,  // 2
NOTE_E4,  16,  // 3
NOTE_G4,  16,  // 4
NOTE_C5,  16,  // 5
NOTE_E4,  16,  // 6
NOTE_G4,  16,  // 7
NOTE_C5,  16,  // 8

// 9 OK cambio
NOTE_A3,  16,  // 1
NOTE_C4,  16,  // 2
NOTE_E4,  16,  // 3
NOTE_G4,  16,  // 4
NOTE_C5,  16,  // 5
NOTE_E4,  16,  // 6
NOTE_G4,  16,  // 7
NOTE_C5,  16,  // 8

NOTE_A3,  16,  // 1
NOTE_C4,  16,  // 2
NOTE_E4,  16,  // 3
NOTE_G4,  16,  // 4
NOTE_C5,  16,  // 5
NOTE_E4,  16,  // 6
NOTE_G4,  16,  // 7
NOTE_C5,  16,  // 8

// 10 OK cambio
NOTE_D3,  16,  // 1
NOTE_A3,  16,  // 2
NOTE_D4,  16,  // 3
NOTE_FS4, 16,  // 4
NOTE_C5,  16,  // 5
NOTE_D4,  16,  // 6
NOTE_FS4, 16,  // 7
NOTE_C5,  16,  // 8

NOTE_D3,  16,  // 1
NOTE_A3,  16,  // 2
NOTE_D4,  16,  // 3
NOTE_FS4, 16,  // 4
NOTE_C5,  16,  // 5
NOTE_D4,  16,  // 6
NOTE_FS4, 16,  // 7
NOTE_C5,  16,  // 8

// 11 OK
NOTE_G3,  16,  // 1
NOTE_B3,  16,  // 2
NOTE_D4,  16,  // 3
NOTE_G4,  16,  // 4
NOTE_B4,  16,  // 5
NOTE_D4,  16,  // 6
NOTE_G4,  16,  // 7
NOTE_B4,  16,  // 8
                   
NOTE_G3,  16,  // 1
NOTE_B3,  16,  // 2
NOTE_D4,  16,  // 3
NOTE_G4,  16,  // 4
NOTE_B4,  16,  // 5
NOTE_D4,  16,  // 6
NOTE_G4,  16,  // 7
NOTE_B4,  16,  // 8

// 12 OK cambio
NOTE_G3,  16,  // 1
NOTE_AS3, 16,  // 2
NOTE_E4,  16,  // 3
NOTE_G4,  16,  // 4
NOTE_CS5, 16,  // 5
NOTE_E4,  16,  // 6
NOTE_G4,  16,  // 7
NOTE_CS5, 16,  // 8
                   
NOTE_G3,  16,  // 1
NOTE_AS3, 16,  // 2
NOTE_E4,  16,  // 3
NOTE_G4,  16,  // 4
NOTE_CS5, 16,  // 5
NOTE_E4,  16,  // 6
NOTE_G4,  16,  // 7
NOTE_CS5, 16,  // 8

// 13 OK
NOTE_F3,  16,  // 1
NOTE_A3,  16,  // 2
NOTE_D4,  16,  // 3
NOTE_A4,  16,  // 4
NOTE_D5,  16,  // 5
NOTE_D4,  16,  // 6
NOTE_A4,  16,  // 7
NOTE_D5,  16,  // 8
                   
NOTE_F3,  16,  // 1
NOTE_A3,  16,  // 2
NOTE_D4,  16,  // 3
NOTE_A4,  16,  // 4
NOTE_D5,  16,  // 5
NOTE_D4,  16,  // 6
NOTE_A4,  16,  // 7
NOTE_D5,  16,  // 8

// 14 OK cambio
NOTE_F3,  16,  // 1
NOTE_GS3, 16,  // 2
NOTE_D4,  16,  // 3
NOTE_F4,  16,  // 4
NOTE_B4,  16,  // 5
NOTE_D4,  16,  // 6
NOTE_F4,  16,  // 7
NOTE_B4,  16,  // 8
                   
NOTE_F3,  16,  // 1
NOTE_GS3, 16,  // 2
NOTE_D4,  16,  // 3
NOTE_F4,  16,  // 4
NOTE_B4,  16,  // 5
NOTE_D4,  16,  // 6
NOTE_F4,  16,  // 7
NOTE_B4,  16,  // 8

// 15 OK
NOTE_E3,  16,  // 1
NOTE_G3,  16,  // 2
NOTE_C4,  16,  // 3
NOTE_G4,  16,  // 4
NOTE_C5,  16,  // 5
NOTE_C4,  16,  // 6
NOTE_G4,  16,  // 7
NOTE_C5,  16,  // 8
                   
NOTE_E3,  16,  // 1
NOTE_G3,  16,  // 2
NOTE_C4,  16,  // 3
NOTE_G4,  16,  // 4
NOTE_C5,  16,  // 5
NOTE_C4,  16,  // 6
NOTE_G4,  16,  // 7
NOTE_C5,  16,  // 8

// 16 OK cambio
NOTE_E3,  16,  // 1
NOTE_F3,  16,  // 2
NOTE_A3,  16,  // 3
NOTE_C4,  16,  // 4
NOTE_F4,  16,  // 5
NOTE_A3,  16,  // 6
NOTE_C4,  16,  // 7
NOTE_F4,  16,  // 8
                   
NOTE_E3,  16,  // 1
NOTE_F3,  16,  // 2
NOTE_A3,  16,  // 3
NOTE_C4,  16,  // 4
NOTE_F4,  16,  // 5
NOTE_A3,  16,  // 6
NOTE_C4,  16,  // 7
NOTE_F4,  16,  // 8

// 17 OK cambio
NOTE_D3,  16,  // 1
NOTE_F3,  16,  // 2
NOTE_A3,  16,  // 3
NOTE_C4,  16,  // 4
NOTE_F4,  16,  // 5
NOTE_A3,  16,  // 6
NOTE_C4,  16,  // 7
NOTE_F4,  16,  // 8
                   
NOTE_D3,  16,  // 1
NOTE_F3,  16,  // 2
NOTE_A3,  16,  // 3
NOTE_C4,  16,  // 4
NOTE_F4,  16,  // 5
NOTE_A3,  16,  // 6
NOTE_C4,  16,  // 7
NOTE_F4,  16,  // 8

// 18 OK
NOTE_G2,  16,  // 1
NOTE_D3,  16,  // 2
NOTE_G3,  16,  // 3
NOTE_B3,  16,  // 4
NOTE_F4,  16,  // 5
NOTE_G3,  16,  // 6
NOTE_B3,  16,  // 7
NOTE_F4,  16,  // 8
                   
NOTE_G2,  16,  // 1
NOTE_D3,  16,  // 2
NOTE_G3,  16,  // 3
NOTE_B3,  16,  // 4
NOTE_F4,  16,  // 5
NOTE_G3,  16,  // 6
NOTE_B3,  16,  // 7
NOTE_F4,  16,  // 8

// 19 OK cambio
NOTE_C3,  16,  // 1
NOTE_E3,  16,  // 2
NOTE_G3,  16,  // 3
NOTE_C4,  16,  // 4
NOTE_E4,  16,  // 5
NOTE_G3,  16,  // 6
NOTE_C4,  16,  // 7
NOTE_E4,  16,  // 8
                   
NOTE_C3,  16,  // 1
NOTE_E3,  16,  // 2
NOTE_G3,  16,  // 3
NOTE_C4,  16,  // 4
NOTE_E4,  16,  // 5
NOTE_G3,  16,  // 6
NOTE_C4,  16,  // 7
NOTE_E4,  16,  // 8

// 20 OK cambio
NOTE_C3,  16,  // 1
NOTE_G3,  16,  // 2
NOTE_AS3, 16,  // 3
NOTE_C4,  16,  // 4
NOTE_E4,  16,  // 5
NOTE_AS3, 16,  // 6
NOTE_C4,  16,  // 7
NOTE_E4,  16,  // 8
                   
NOTE_C3,  16,  // 1
NOTE_G3,  16,  // 2
NOTE_AS3, 16,  // 3
NOTE_C4,  16,  // 4
NOTE_E4,  16,  // 5
NOTE_AS3, 16,  // 6
NOTE_C4,  16,  // 7
NOTE_E4,  16,  // 8

// 21 OK cambio
NOTE_F2,  16,  // 1
NOTE_F3,  16,  // 2
NOTE_A3,  16,  // 3
NOTE_C4,  16,  // 4
NOTE_E4,  16,  // 5
NOTE_A3,  16,  // 6
NOTE_C4,  16,  // 7
NOTE_E4,  16,  // 8
                   
NOTE_F2,  16,  // 1
NOTE_F3,  16,  // 2
NOTE_A3,  16,  // 3
NOTE_C4,  16,  // 4
NOTE_E4,  16,  // 5
NOTE_A3,  16,  // 6
NOTE_C4,  16,  // 7
NOTE_E4,  16,  // 8

// 22 OK cambio
NOTE_FS2, 16,  // 1
NOTE_C3,  16,  // 2
NOTE_A3,  16,  // 3
NOTE_C4,  16,  // 4
NOTE_DS4, 16,  // 5
NOTE_A3,  16,  // 6
NOTE_C4,  16,  // 7
NOTE_DS4, 16,  // 8
                   
NOTE_FS2, 16,  // 1
NOTE_C3,  16,  // 2
NOTE_A3,  16,  // 3
NOTE_C4,  16,  // 4
NOTE_DS4, 16,  // 5
NOTE_A3,  16,  // 6
NOTE_C4,  16,  // 7
NOTE_DS4, 16,  // 8

// 23 OK cambio
NOTE_GS2, 16,  // 1
NOTE_F3,  16,  // 2
NOTE_B3,  16,  // 3
NOTE_C4,  16,  // 4
NOTE_D4,  16,  // 5
NOTE_B3,  16,  // 6
NOTE_C4,  16,  // 7
NOTE_D4,  16,  // 8
                   
NOTE_GS2, 16,  // 1
NOTE_F3,  16,  // 2
NOTE_B3,  16,  // 3
NOTE_C4,  16,  // 4
NOTE_D4,  16,  // 5
NOTE_B3,  16,  // 6
NOTE_C4,  16,  // 7
NOTE_D4,  16,  // 8

//24 OK
NOTE_G2,  16,  // 1
NOTE_F3,  16,  // 2
NOTE_G3,  16,  // 3
NOTE_B4,  16,  // 4
NOTE_D4,  16,  // 5
NOTE_G3,  16,  // 6
NOTE_B3,  16,  // 7
NOTE_D4,  16,  // 8
                   
NOTE_G2,  16,  // 1
NOTE_F3,  16,  // 2
NOTE_G3,  16,  // 3
NOTE_B4,  16,  // 4
NOTE_D4,  16,  // 5
NOTE_G3,  16,  // 6
NOTE_B3,  16,  // 7
NOTE_D4,  16,  // 8

//25 OK cambio
NOTE_G2,  16,  // 1
NOTE_E3,  16,  // 2
NOTE_G3,  16,  // 3
NOTE_C4,  16,  // 4
NOTE_E4,  16,  // 5
NOTE_G3,  16,  // 6
NOTE_C4,  16,  // 7
NOTE_E4,  16,  // 8
                   
NOTE_G2,  16,  // 1
NOTE_E3,  16,  // 2
NOTE_G3,  16,  // 3
NOTE_C4,  16,  // 4
NOTE_E4,  16,  // 5
NOTE_G3,  16,  // 6
NOTE_C4,  16,  // 7
NOTE_E4,  16,  // 8

// 26 OK cambio
NOTE_G2,  16,  // 1
NOTE_D3,  16,  // 2
NOTE_G3,  16,  // 3
NOTE_C4,  16,  // 4
NOTE_F4,  16,  // 5
NOTE_G3,  16,  // 6
NOTE_C4,  16,  // 7
NOTE_F4,  16,  // 8
                   
NOTE_G2,  16,  // 1
NOTE_D3,  16,  // 2
NOTE_G3,  16,  // 3
NOTE_C4,  16,  // 4
NOTE_F4,  16,  // 5
NOTE_G3,  16,  // 6
NOTE_C4,  16,  // 7
NOTE_F4,  16,  // 8

// 27 OK cambio
NOTE_G2,  16,  // 1
NOTE_D3,  16,  // 2
NOTE_G3,  16,  // 3
NOTE_B3,  16,  // 4
NOTE_F4,  16,  // 5
NOTE_G3,  16,  // 6
NOTE_B3,  16,  // 7
NOTE_F4,  16,  // 8
                   
NOTE_G2,  16,  // 1
NOTE_D3,  16,  // 2
NOTE_G3,  16,  // 3
NOTE_B3,  16,  // 4
NOTE_F4,  16,  // 5
NOTE_G3,  16,  // 6
NOTE_B3,  16,  // 7
NOTE_F4,  16,  // 8

//28 OK Cambio
NOTE_G2,  16,  // 1
NOTE_DS3, 16,  // 2
NOTE_A3,  16,  // 3
NOTE_C4,  16,  // 4
NOTE_FS4, 16,  // 5
NOTE_A3,  16,  // 6
NOTE_C4,  16,  // 7
NOTE_FS4, 16,  // 8
                   
NOTE_G2,  16,  // 1
NOTE_DS3, 16,  // 2
NOTE_A3,  16,  // 3
NOTE_C4,  16,  // 4
NOTE_FS4, 16,  // 5
NOTE_A3,  16,  // 6
NOTE_C4,  16,  // 7
NOTE_FS4, 16,  // 8

// 29 OK
NOTE_G2,  16,  // 1
NOTE_E3,  16,  // 2
NOTE_G3,  16,  // 3
NOTE_C4,  16,  // 4
NOTE_G4,  16,  // 5
NOTE_G3,  16,  // 6
NOTE_C4,  16,  // 7
NOTE_G4,  16,  // 8
                   
NOTE_G2,  16,  // 1
NOTE_E3,  16,  // 2
NOTE_G3,  16,  // 3
NOTE_C4,  16,  // 4
NOTE_G4,  16,  // 5
NOTE_G3,  16,  // 6
NOTE_C4,  16,  // 7
NOTE_G4,  16,  // 8

// 30 OK
NOTE_G2,  16,  // 1
NOTE_D3,  16,  // 2
NOTE_G3,  16,  // 3
NOTE_C4,  16,  // 4
NOTE_F4,  16,  // 5
NOTE_G3,  16,  // 6
NOTE_C4,  16,  // 7
NOTE_F4,  16,  // 8
                   
NOTE_G2,  16,  // 1
NOTE_D3,  16,  // 2
NOTE_G3,  16,  // 3
NOTE_C4,  16,  // 4
NOTE_F4,  16,  // 5
NOTE_G3,  16,  // 6
NOTE_C4,  16,  // 7
NOTE_F4,  16,  // 8

// 31 OK
NOTE_G2,  16,  // 1
NOTE_D3,  16,  // 2
NOTE_G3,  16,  // 3
NOTE_B3,  16,  // 4
NOTE_F4,  16,  // 5
NOTE_G3,  16,  // 6
NOTE_B3,  16,  // 7
NOTE_F4,  16,  // 8
                   
NOTE_G2,  16,  // 1
NOTE_D3,  16,  // 2
NOTE_G3,  16,  // 3
NOTE_B3,  16,  // 4
NOTE_F4,  16,  // 5
NOTE_G3,  16,  // 6
NOTE_B3,  16,  // 7
NOTE_F4,  16,  // 8

// 32 OK
NOTE_C2,  16,  // 1
NOTE_C3,  16,  // 2
NOTE_G3,  16,  // 3
NOTE_AS3, 16,  // 4
NOTE_E4,  16,  // 5
NOTE_G3,  16,  // 6
NOTE_AS3, 16,  // 7
NOTE_E4,  16,  // 8
                   
NOTE_C2,  16,  // 1
NOTE_C3,  16,  // 2
NOTE_G3,  16,  // 3
NOTE_AS3, 16,  // 4
NOTE_E4,  16,  // 5
NOTE_G3,  16,  // 6
NOTE_AS3, 16,  // 7
NOTE_E4,  16,  // 8

// 33
NOTE_C2,  16,  // 1
NOTE_C3,  16,  // 2
NOTE_F3,  16,  // 3
NOTE_A3,  16,  // 4
NOTE_C4,  16,  // 5
NOTE_F4,  16,  // 6
NOTE_C4,  16,  // 7
NOTE_A3,  16,  // 8
                   
NOTE_C4,  16,  // 1
NOTE_A3,  16,  // 2
NOTE_F3,  16,  // 3
NOTE_A3,  16,  // 4
NOTE_F3,  16,  // 5
NOTE_D3,  16,  // 6
NOTE_F3,  16,  // 7
NOTE_D3,  16,  // 8

// 34
NOTE_C2,  16,  // 1
NOTE_B2,  16,  // 2
NOTE_G4,  16,  // 3
NOTE_B4,  16,  // 4
NOTE_D5,  16,  // 5
NOTE_F5,  16,  // 6
NOTE_D5,  16,  // 7
NOTE_B4,  16,  // 8
                   
NOTE_D5,  16,  // 1
NOTE_B4,  16,  // 2
NOTE_G4,  16,  // 3
NOTE_B4,  16,  // 4
NOTE_D4,  16,  // 5
NOTE_F4,  16,  // 6
NOTE_E4,  16,  // 7
NOTE_D4,  16,  // 8

// 35
NOTE_C4, 1,
};
